<svg xmlns="http://www.w3.org/2000/svg" viewBox="0 0 96 96" role="img" aria-labelledby="title desc">
  <title id="title">金幣</title>
  <desc id="desc">成堆金幣圖示</desc>
  <defs>
    <radialGradient id="coin" cx="38%" cy="30%" r="68%">
      <stop offset="0" stop-color="#fff4a8"/>
      <stop offset="0.38" stop-color="#e6bc4a"/>
      <stop offset="0.72" stop-color="#9a6a1e"/>
      <stop offset="1" stop-color="#4d3210"/>
    </radialGradient>
    <linearGradient id="edge" x1="0" x2="1">
      <stop offset="0" stop-color="#5b390f"/>
      <stop offset="0.5" stop-color="#ffd66a"/>
      <stop offset="1" stop-color="#6b4313"/>
    </linearGradient>
  </defs>
  <rect width="96" height="96" rx="14" fill="#080c12"/>
  <g stroke="#2a1b0a" stroke-width="2.2" stroke-linejoin="round">
    <ellipse cx="30" cy="68" rx="21" ry="9" fill="url(#edge)"/>
    <ellipse cx="30" cy="62" rx="21" ry="9" fill="url(#coin)"/>
    <ellipse cx="52" cy="70" rx="24" ry="10" fill="url(#edge)"/>
    <ellipse cx="52" cy="63" rx="24" ry="10" fill="url(#coin)"/>
    <ellipse cx="66" cy="54" rx="20" ry="8" fill="url(#edge)"/>
    <ellipse cx="66" cy="48" rx="20" ry="8" fill="url(#coin)"/>
    <ellipse cx="43" cy="49" rx="23" ry="10" fill="url(#edge)"/>
    <ellipse cx="43" cy="42" rx="23" ry="10" fill="url(#coin)"/>
    <ellipse cx="25" cy="55" rx="18" ry="8" fill="url(#edge)"/>
    <ellipse cx="25" cy="49" rx="18" ry="8" fill="url(#coin)"/>
  </g>
  <g fill="none" stroke="#ffe99b" stroke-width="2" stroke-linecap="round" opacity="0.85">
    <path d="M18 48c6-4 13-5 21-2"/>
    <path d="M34 40c8-4 18-4 26 0"/>
    <path d="M54 47c6-3 14-3 22 0"/>
    <path d="M35 61c8-3 19-3 29 1"/>
  </g>
  <g fill="#fff7b8" opacity="0.9">
    <circle cx="32" cy="36" r="2.2"/>
    <circle cx="61" cy="39" r="1.8"/>
    <circle cx="20" cy="45" r="1.6"/>
  </g>
</svg>
